<svg width="70" height="70" viewBox="0 0 70 70" fill="none" xmlns="http://www.w3.org/2000/svg">
<path d="M13.8367 29.9245L5.40221 37.8899C1.94323 41.1564 0 45.5869 0 50.2066C0 54.8262 1.94323 59.2567 5.40221 62.5233C8.86119 65.7898 13.5526 67.625 18.4443 67.625C23.336 67.625 28.0274 65.7898 31.4864 62.5233L42.7242 51.9047C44.81 49.9346 46.365 47.5207 47.2586 44.8656C48.1522 42.2105 48.3583 39.3918 47.8596 36.6459C47.361 33.9 46.1721 31.3072 44.3928 29.085C42.6135 26.8628 40.2957 25.0762 37.634 23.875L34.0315 27.2771C33.6658 27.6231 33.3477 28.0113 33.0848 28.4324C35.1413 28.9908 37.0079 30.0463 38.5001 31.4947C39.9923 32.9431 41.0584 34.7342 41.593 36.6909C42.1276 38.6476 42.1122 40.7022 41.5483 42.6516C40.9844 44.601 39.8916 46.3776 38.3778 47.8059L27.1462 58.4187C24.8391 60.5974 21.7101 61.8214 18.4474 61.8214C15.1847 61.8214 12.0556 60.5974 9.74855 58.4187C7.44148 56.2399 6.14538 53.2849 6.14538 50.2037C6.14538 47.1224 7.44148 44.1674 9.74855 41.9886L14.6236 37.3906C13.9358 34.9564 13.67 32.4389 13.8367 29.9245Z" fill="black"/>
<path d="M27.2758 17.7166C25.19 19.6869 23.635 22.1012 22.7414 24.7566C21.8478 27.412 21.6417 30.2312 22.1404 32.9774C22.639 35.7236 23.8279 38.3168 25.6072 40.5393C27.3865 42.7618 29.7043 44.5487 32.366 45.75L37.1304 41.2442C35.046 40.7162 33.1456 39.6792 31.6199 38.2377C30.0943 36.7961 28.9972 35.0006 28.439 33.0317C27.8808 31.0628 27.8811 28.9898 28.4398 27.0211C28.9986 25.0523 30.0961 23.2571 31.6222 21.8159L42.8538 11.2018C45.1609 9.02272 48.2899 7.79854 51.5526 7.79854C54.8153 7.79854 57.9444 9.02272 60.2514 11.2018C62.5585 13.3808 63.8546 16.3362 63.8546 19.4179C63.8546 22.4995 62.5585 25.4549 60.2514 27.6339L55.3764 32.2326C56.0649 34.6713 56.3293 37.1971 56.1633 39.7055L64.5978 31.7391C68.0568 28.4721 70 24.041 70 19.4208C70 14.8005 68.0568 10.3694 64.5978 7.10242C61.1388 3.8354 56.4474 2 51.5557 2C46.664 2 41.9726 3.8354 38.5136 7.10242L27.2758 17.7166Z" fill="black"/>
</svg>
